<?xml version="1.0" encoding="utf-8"?>
<!-- Generator: Adobe Illustrator 24.1.1, SVG Export Plug-In . SVG Version: 6.00 Build 0)  -->
<svg version="1.1" id="Capa_1" xmlns="http://www.w3.org/2000/svg" xmlns:xlink="http://www.w3.org/1999/xlink" x="0px" y="0px"
	 viewBox="0 0 199.5 223" style="enable-background:new 0 0 199.5 223;" xml:space="preserve">
<style type="text/css">
	.st0{fill:#388FAF;}
</style>
<g>
	<path class="st0" d="M100.02,167.08c-5.27-0.2-10.69,0.47-15.88,1.64c-4.22,0.95-3.61,5.99,1.81,5.24
		c15.4-2.14,23.84,0.3,32.02,0.86c5.98,0.41,12.17,0.25,17.93-1.05c6.1-1.38,10.42-5.66,9.6-12.78c-0.36-3.11,1.55-4.54,3.13-5.28
		c9.86-4.65,33.62-15.11,35.45-15.48c7.59-1.51,9.13,5.75,6,8.99c-1.76,1.82-3.55,3.97-5.64,5.63c-5.09,4.05-10.66,7.55-15.42,11.94
		c-18.86,17.36-43.26,22.99-66.28,31.41c-4.3,1.57-9.84,0.78-14.6-0.09c-17.41-3.18-34.68-7.07-52.1-10.18
		c-4.93-0.88-10.19-0.14-15.27,0.15c-3.78,0.22-5.55-0.85-6.21-4.99c-1.84-11.5-4.2-22.92-6.46-34.35
		c-0.81-4.12,0.44-6.12,4.81-6.92c4.09-0.75,8.16-2.22,11.94-4.02c11.53-5.49,29.36-4.68,40.37,1.42
		c15.5,9.05,32.24,12.49,50.09,12.09c5.48-0.12,11.07,1.58,16.51,2.85c4.53,1.06,7.87,3.85,7.42,8.97
		c-0.47,5.41-5.11,5.54-9.07,6.02c-2.43,0.3-4.93,0.05-7.4,0.05C122.77,169.31,107.62,167.37,100.02,167.08z"/>
	<g>
		<path class="st0" d="M102.18,47.61c-0.08-12.81,10.61-23.81,23.97-23.72c13.13,0.09,23.69,10.83,23.68,23.85
			c-0.01,13.42-11.04,23.89-23.94,23.85C112.87,71.55,101.96,60.7,102.18,47.61z"/>
		<path class="st0" d="M169.69,107.98c-0.02-1.73-0.26-3.49-0.66-5.16c-0.99-4.07-3.16-7.52-6.01-10.56
			c-2.58-2.76-5.57-4.98-8.85-6.83c-1.03-0.58-2.09-1.11-3.23-1.71c0.02,0.23,0.02,0.31,0.03,0.39c0.14,1.78,0.46,3.57,0.36,5.33
			c-0.16,2.83-0.59,5.64-0.92,8.45c-0.05,0.44,0.09,0.64,0.47,0.88c0.95,0.6,1.94,1.2,2.75,1.97c2.73,2.6,3.74,5.96,3.96,9.6
			c0.17,2.81-0.14,5.59-0.83,8.32c-0.11,0.44-0.04,0.79,0.24,1.17c1.17,1.6,1.01,3.85-0.35,5.39c-1.25,1.42-3.56,1.85-5.23,0.94
			c-1.63-0.88-2.45-2.29-2.38-4.13c0.07-1.87,1.29-3.34,3.09-3.96c0.21-0.07,0.47-0.31,0.51-0.52c0.58-2.68,0.91-5.38,0.55-8.13
			c-0.4-3.09-1.67-5.58-4.55-7.02c-2.05-1.02-4.21-1.41-6.48-0.92c-2.06,0.44-3.59,1.69-4.84,3.31c-1.83,2.36-2.92,5.08-3.75,7.92
			c-0.12,0.41-0.02,0.64,0.26,0.93c2.16,2.17,1.48,5.76-1.33,7.04c-2.12,0.97-4.61,0.08-5.69-2.03c-1.03-2.01-0.28-4.65,1.7-5.7
			c0.58-0.31,0.78-0.69,0.94-1.26c1.04-3.78,2.53-7.35,5.16-10.32c2.51-2.83,5.63-4.4,9.47-4.36c0.71,0.01,1.41,0.08,2.23,0.13
			c0.26-2.51,0.59-4.96,0.76-7.43c0.17-2.49-0.25-4.94-0.77-7.38c-0.08-0.37-0.24-0.54-0.61-0.67c-2.93-1-5.9-1.76-8.93-2.27
			l-4.63,8.02L126,98l-6.13-10.62l-4.63-8.02c-2.09,0.36-4.17,0.84-6.23,1.41c-1.56,0.43-3.12,0.74-3.3,2.77
			c-0.01,0.08-0.06,0.15-0.08,0.23c-1.37,5.08-1.76,10.24-1.24,15.47c0.09,0.95,0.31,1.88,0.47,2.8c2.83-0.13,3.67,0.2,4.91,0.83
			c3.43,1.74,5.14,4.58,4.98,8.46c-0.24,5.99-6.84,10.34-12.83,7.21c-5.61-2.94-6.29-10.42-1.44-14.53c0.19-0.16,0.33-0.56,0.28-0.8
			c-1.17-4.99-1.03-10.01-0.38-15.04c0.19-1.49,0.52-2.96,0.79-4.46c-0.06,0.01-0.12,0-0.17,0.03c-4.2,2.01-8.08,4.48-11.38,7.81
			c-4.85,4.89-7.52,10.67-7.39,17.68c0.1,5.63,0.02,11.26,0.02,16.88c0,0.61,0.03,1.22,0.08,1.83c0.28,3.41,3.3,6.19,6.73,6.19
			c24.55,0,49.11,0,73.66-0.01c0.52,0,1.05-0.05,1.56-0.16c3.18-0.67,5.43-3.52,5.43-6.9C169.73,120.71,169.77,114.34,169.69,107.98
			z"/>
	</g>
</g>
</svg>
