<?xml version="1.0" encoding="utf-8"?>
<!-- Generator: Adobe Illustrator 24.1.1, SVG Export Plug-In . SVG Version: 6.00 Build 0)  -->
<svg version="1.1" id="Capa_1" xmlns="http://www.w3.org/2000/svg" xmlns:xlink="http://www.w3.org/1999/xlink" x="0px" y="0px"
	 viewBox="0 0 199.5 223" style="enable-background:new 0 0 199.5 223;" xml:space="preserve">
<style type="text/css">
	.st0{fill:#388FAF;}
</style>
<g>
	<path class="st0" d="M123.83,168.16c0,3.94-0.04,7.88,0.03,11.81c0.02,1.22-0.43,1.67-1.59,1.94c-4.35,1.03-8.74,1.4-13.21,1.54
		c-4.32,0.14-8.62-0.13-12.94,0.02c-6.4,0.22-12.78-0.21-18.97-2.13c-0.9-0.28-1.28-0.62-1.27-1.65c0.03-5.29-0.07-10.57-0.08-15.86
		c-0.01-2.5,0.1-4.99,0.12-7.49c0.01-1.22-0.42-2.27-1.6-2.81c-1.63-0.74-3.41,0.38-3.52,2.26c-0.09,1.65-0.05,3.3-0.05,4.95
		c0,5.5,0.01,11.01,0.01,16.51c0,1.54-0.21,1.67-1.6,0.96c-6.34-3.27-11.69-7.64-15.29-13.9c-4.71-8.2-4.45-18.36,1.47-26.6
		c5.42-7.55,12.92-12.04,21.67-14.67c1.78-0.54,3.62-0.86,5.42-1.33c0.87-0.23,1.61-0.12,2.41,0.36c4.6,2.76,9.6,4.21,14.97,4.21
		c5.14,0,9.99-1.24,14.41-3.91c1.44-0.87,2.76-1.02,4.42-0.72c6.24,1.15,12.11,3.19,17.45,6.65c5.97,3.86,10.76,8.77,13.27,15.57
		c2.26,6.13,2.05,12.2-0.65,18.16c-3.17,7.01-8.59,11.84-15.19,15.51c-1.03,0.57-2.1,1.1-3.17,1.6c-1.25,0.58-1.5,0.42-1.5-0.94
		c-0.01-4.49,0-8.98,0-13.46c0-2.84,0.01-5.67-0.01-8.51c-0.01-1.88-0.87-2.85-2.47-2.88c-1.52-0.02-2.51,1.07-2.52,2.87
		C123.81,160.2,123.83,164.18,123.83,168.16C123.83,168.16,123.83,168.16,123.83,168.16z"/>
	<path class="st0" d="M127.24,88.55c-0.04,5.09-1.32,9.87-3.61,14.39c-2.83,5.56-6.75,10.17-12.21,13.26
		c-8.14,4.61-16.41,4.51-24.15-0.66c-10.24-6.85-15.33-16.76-14.73-29.07c0.46-9.47,5.19-16.85,13.37-21.67
		c16.09-9.49,36.35-0.73,40.69,17.44C127.09,84.31,127.22,86.42,127.24,88.55z"/>
	<path class="st0" d="M26.8,123.32c0,3.01-0.01,6.01,0.01,9.02c0.01,0.84-0.25,1.23-1.12,0.88c-6.59-2.61-12.21-6.42-15.52-12.95
		c-3.48-6.87-2.38-15.04,2.69-20.88c5.62-6.47,12.95-9.57,21.2-10.95c1.6-0.27,3.01-0.01,4.53,0.58c5.47,2.11,11.06,2.23,16.44-0.16
		c2.15-0.95,4.11-0.6,6.18-0.34c4.29,0.52,4.18,0.55,4.73,4.79c0.96,7.36,4.03,13.84,8.54,19.68c0.93,1.21,1.89,2.4,3,3.45
		c0.59,0.56,0.66,1-0.27,1.2c-1.95,0.42-3.84,1.04-5.72,1.7c-0.89,0.31-1.15-0.08-1.14-0.9c0.01-1.44,0.02-2.88-0.01-4.32
		c-0.02-1.27-0.64-1.97-1.69-1.91c-1.2,0.07-1.52,0.87-1.52,1.93c0.01,1.86-0.04,3.73,0,5.59c0.02,0.96-0.3,1.54-1.2,1.99
		c-5.55,2.76-10.5,6.33-14.51,11.12c-0.22,0.26-0.51,0.48-0.65,0.78c-0.95,2.01-2.55,2.41-4.67,2.32c-4.6-0.2-9.23,0.2-13.79-0.82
		c-2.14-0.48-2.15-0.41-2.16-2.55c-0.02-6.17-0.05-12.35-0.07-18.52c0-1.03-0.45-1.72-1.52-1.84c-1.02-0.11-1.75,0.62-1.77,1.86
		c-0.04,3.09-0.01,6.18-0.01,9.27C26.81,123.32,26.81,123.32,26.8,123.32z"/>
	<path class="st0" d="M169.56,123.74c0,3.13-0.03,6.27,0.02,9.4c0.02,1.07-0.32,1.56-1.43,1.81c-5.02,1.09-10.1,0.91-15.18,0.93
		c-0.55,0-0.85-0.29-1.13-0.68c-4.59-6.45-10.71-11-17.87-14.21c-1.05-0.47-1.51-1.09-1.5-2.19c0.02-1.52-0.02-3.05,0.02-4.57
		c0.03-1.25-0.5-2.02-1.53-2.05c-0.99-0.03-1.57,0.62-1.59,1.85c-0.02,1.27-0.02,2.54-0.01,3.81c0,0.95-0.43,1.19-1.29,0.86
		c-1.71-0.65-3.47-1.09-5.26-1.43c-0.97-0.18-1.02-0.5-0.36-1.2c6.15-6.53,10.07-14.16,11.32-23.1c0.06-0.46,0.11-0.92,0.14-1.39
		c0.12-2.23,0.12-2.22,2.25-2.71c1.82-0.42,3.67-0.6,5.52-0.84c0.44-0.06,0.83,0.09,1.22,0.27c6.36,2.92,12.76,3.02,19.17,0.17
		c1.29-0.57,2.54-0.15,3.74,0.06c7.44,1.31,14.19,4.05,19.62,9.57c7.65,7.78,7.92,19.19,0.53,27.22c-3.28,3.56-7.25,6.07-11.75,7.78
		c-1.23,0.47-1.41,0.35-1.41-0.97c-0.02-5.72-0.02-11.43-0.02-17.15c0-0.34,0.01-0.68,0-1.02c-0.06-1.21-0.64-1.86-1.65-1.81
		c-1.12,0.05-1.54,0.77-1.55,1.78c-0.01,3.26,0,6.52,0,9.78C169.58,123.74,169.57,123.74,169.56,123.74z"/>
	<path class="st0" d="M46.89,85.29c-4.75,0.01-8.76-1.63-12.18-4.51c-6.08-5.13-9.38-11.75-9.51-19.72
		c-0.16-9.18,5.75-17.34,14.43-20.37c13-4.54,26.71,4.12,28.4,17.78c1.32,10.69-6.23,23.29-16.69,26.18
		C49.81,85.07,48.28,85.34,46.89,85.29z"/>
	<path class="st0" d="M174.11,60.89c-0.46,8.76-3.77,16.09-11.19,21.11c-6.95,4.7-14.58,4.51-21.28-0.57
		c-6.83-5.17-10.42-12.19-10.44-20.77c-0.02-10.97,8.65-19.97,19.49-21.09c10.3-1.06,21.92,6.25,23.41,19.29
		C174.18,59.53,174.11,60.21,174.11,60.89z"/>
</g>
</svg>
