<?xml version="1.0" encoding="utf-8"?>
<!-- Generator: Adobe Illustrator 24.1.1, SVG Export Plug-In . SVG Version: 6.00 Build 0)  -->
<svg version="1.1" id="Capa_1" xmlns="http://www.w3.org/2000/svg" xmlns:xlink="http://www.w3.org/1999/xlink" x="0px" y="0px"
	 viewBox="0 0 199.5 223" style="enable-background:new 0 0 199.5 223;" xml:space="preserve">
<style type="text/css">
	.st0{fill-rule:evenodd;clip-rule:evenodd;fill:#378EAE;}
	.st1{fill:#378EAE;}
</style>
<g>
	<path class="st0" d="M14.25,114.49c0-1.99,0-3.99,0-5.98c0.08-0.39,0.2-0.78,0.23-1.17c0.09-1.16,0.12-2.32,0.23-3.48
		c0.39-4.04,1-8.05,1.95-12c4.33-17.96,13.48-33.01,27.42-45.1c10.14-8.79,21.76-14.8,34.78-18.11c3.71-0.94,7.46-1.63,11.26-2.05
		c2-0.22,4.02-0.31,6.03-0.46c0.26-0.02,0.51-0.09,0.76-0.14c1.9,0,3.8,0,5.7,0c0.3,0.05,0.61,0.11,0.91,0.13
		c1.39,0.1,2.79,0.17,4.19,0.29c4.21,0.35,8.38,1.04,12.48,2.06c14.59,3.61,27.37,10.55,38.32,20.85
		c9.3,8.76,16.3,19.09,20.96,30.99c3.28,8.38,5.27,17.06,5.66,26.08c0.01,0.23,0.08,0.46,0.13,0.68c0,2.99,0,5.98,0,8.98
		c-0.05,0.23-0.12,0.46-0.13,0.69c-0.1,1.32-0.15,2.65-0.28,3.97c-0.41,4.16-1.15,8.27-2.22,12.31
		c-4.31,16.33-12.63,30.27-25.13,41.63c-15.07,13.7-32.86,21.07-53.2,22.25c-0.23,0.01-0.46,0.06-0.7,0.1c-2.52,0-5.03,0-7.55,0
		c-0.18-0.03-0.37-0.08-0.55-0.09c-1.82-0.15-3.64-0.26-5.46-0.46c-4.61-0.49-9.14-1.4-13.59-2.67
		c-13.39-3.83-25.15-10.53-35.28-20.08c-8.02-7.56-14.33-16.36-18.96-26.36c-3.16-6.84-5.36-13.98-6.62-21.41
		c-0.53-3.09-0.88-6.2-1.05-9.33C14.48,115.89,14.34,115.19,14.25,114.49z M99.82,186.84c41.61-0.02,74.93-33.65,75.33-74.52
		c0.42-41.77-33.28-75.68-74.54-76.08c-41.65-0.41-75.97,33.27-76.05,75.15C24.48,152.99,58.22,186.79,99.82,186.84z"/>
	<g>
		<path class="st1" d="M62.22,101.23c0.01-5.04,0.87-9.58,2.57-13.94c1.11-2.84,2.56-5.5,4.32-7.99c1.42-2.01,3.02-3.87,4.81-5.56
			c2.21-2.09,4.63-3.89,7.27-5.39c2.69-1.53,5.53-2.71,8.52-3.54c2.93-0.81,5.92-1.28,8.96-1.33c1.04-0.02,2.08,0.04,3.12,0.07
			c3.68,0.09,7.22,0.88,10.67,2.11c3.42,1.22,6.58,2.92,9.51,5.08c1.69,1.24,3.27,2.6,4.72,4.11c2.03,2.1,3.81,4.39,5.29,6.91
			c1.56,2.66,2.83,5.45,3.71,8.41c0.81,2.75,1.34,5.55,1.49,8.41c0.06,1.07,0.13,2.15,0.07,3.22c-0.08,1.44-0.24,2.89-0.45,4.32
			c-0.29,1.98-0.78,3.92-1.45,5.81c-0.68,1.94-1.4,3.87-2.23,5.74c-0.82,1.87-1.73,3.7-2.72,5.49c-1.14,2.08-2.37,4.11-3.63,6.12
			c-1.01,1.62-2.07,3.2-3.17,4.75c-1.37,1.92-2.78,3.81-4.24,5.67c-1.67,2.13-3.37,4.24-5.11,6.3c-1.58,1.86-3.21,3.69-4.87,5.48
			c-1.85,1.99-3.75,3.94-5.64,5.89c-0.44,0.46-0.91,0.9-1.42,1.29c-1.58,1.22-4.2,1.13-5.75-0.44c-1.57-1.59-3.18-3.16-4.71-4.79
			c-1.76-1.87-3.5-3.76-5.18-5.7c-1.88-2.16-3.72-4.36-5.5-6.6c-1.73-2.18-3.37-4.43-5.03-6.67c-0.47-0.64-0.88-1.33-1.32-1.99
			c-1.03-1.56-2.12-3.1-3.09-4.7c-1.23-2.04-2.41-4.12-3.53-6.22c-1.49-2.77-2.73-5.65-3.76-8.62c-0.66-1.92-1.21-3.88-1.61-5.87
			C62.45,105.03,62.23,102.97,62.22,101.23z M99.76,79.99c-11.49-0.03-20.86,9.29-21.02,20.71c-0.17,11.89,9.77,21.82,21.99,21.26
			c10.75-0.49,19.83-9.3,20.02-20.62C120.95,89.38,111.21,79.95,99.76,79.99z"/>
	</g>
</g>
</svg>
