<?xml version="1.0" encoding="utf-8"?>
<!-- Generator: Adobe Illustrator 24.1.1, SVG Export Plug-In . SVG Version: 6.00 Build 0)  -->
<svg version="1.1" id="Capa_1" xmlns="http://www.w3.org/2000/svg" xmlns:xlink="http://www.w3.org/1999/xlink" x="0px" y="0px"
	 viewBox="0 0 199.5 223" style="enable-background:new 0 0 199.5 223;" xml:space="preserve">
<style type="text/css">
	.st0{fill-rule:evenodd;clip-rule:evenodd;fill:#378EAE;}
</style>
<g>
	<path class="st0" d="M14.25,114.49c0-1.99,0-3.99,0-5.98c0.08-0.39,0.2-0.78,0.23-1.17c0.09-1.16,0.12-2.32,0.23-3.48
		c0.39-4.04,1-8.05,1.95-12c4.33-17.96,13.48-33.01,27.42-45.1c10.14-8.79,21.76-14.8,34.78-18.11c3.71-0.94,7.46-1.63,11.26-2.05
		c2-0.22,4.02-0.31,6.03-0.46c0.26-0.02,0.51-0.09,0.76-0.14c1.9,0,3.8,0,5.7,0c0.3,0.05,0.61,0.11,0.91,0.13
		c1.39,0.1,2.79,0.17,4.19,0.29c4.21,0.35,8.38,1.04,12.48,2.06c14.59,3.61,27.37,10.55,38.32,20.85
		c9.3,8.76,16.3,19.09,20.96,30.99c3.28,8.38,5.27,17.06,5.66,26.08c0.01,0.23,0.08,0.46,0.13,0.68c0,2.99,0,5.98,0,8.98
		c-0.05,0.23-0.12,0.46-0.13,0.69c-0.1,1.32-0.15,2.65-0.28,3.97c-0.41,4.16-1.15,8.27-2.22,12.31
		c-4.31,16.33-12.63,30.27-25.13,41.63c-15.07,13.7-32.86,21.07-53.2,22.25c-0.23,0.01-0.46,0.06-0.7,0.1c-2.52,0-5.03,0-7.55,0
		c-0.18-0.03-0.37-0.08-0.55-0.09c-1.82-0.15-3.64-0.26-5.46-0.46c-4.61-0.49-9.14-1.4-13.59-2.67
		c-13.39-3.83-25.15-10.53-35.28-20.08c-8.02-7.56-14.33-16.36-18.96-26.36c-3.16-6.84-5.36-13.98-6.62-21.41
		c-0.53-3.09-0.88-6.2-1.05-9.33C14.48,115.89,14.34,115.19,14.25,114.49z M99.82,186.84c41.61-0.02,74.93-33.65,75.33-74.52
		c0.42-41.77-33.28-75.68-74.54-76.08c-41.65-0.41-75.97,33.27-76.05,75.15C24.48,152.99,58.22,186.79,99.82,186.84z"/>
	<path class="st0" d="M141.88,83c-0.42,0-0.69,0-0.96,0c-7.57,0.05-15.15,0.1-22.72,0.14c-17.07,0.07-34.15,0.13-51.22,0.2
		c-2.56,0.01-5.13,0.03-7.69,0.05c-0.26,0-0.56-0.1-0.8,0.19c13.68,10.86,27.34,21.7,40.97,32.52
		C101.96,114.37,141.41,83.64,141.88,83z"/>
	<path class="st0" d="M142.97,142.32c0.03-0.07,0.06-0.14,0.08-0.21c-11.81-8.6-23.63-17.19-35.46-25.79
		c-0.15,0.11-0.27,0.19-0.38,0.27c-2.01,1.55-4.01,3.11-6.02,4.66c-0.85,0.66-1.78,0.76-2.79,0.35c-0.74-0.31-1.31-0.85-1.92-1.33
		c-1.46-1.14-2.89-2.31-4.34-3.46c-0.43-0.34-0.47-0.33-0.93-0.01c-0.67,0.48-1.35,0.97-2.01,1.46c-2.88,2.13-5.75,4.27-8.63,6.39
		c-2.61,1.93-5.23,3.85-7.84,5.78c-3.34,2.47-6.67,4.93-10.01,7.4c-1.77,1.31-3.55,2.62-5.32,3.93c-0.15,0.11-0.27,0.26-0.4,0.39
		c0.03,0.05,0.05,0.1,0.08,0.15C85.72,142.32,114.34,142.32,142.97,142.32z"/>
	<path class="st0" d="M148.35,84.89c-0.05-0.03-0.1-0.06-0.16-0.09c-0.2,0.15-0.41,0.29-0.61,0.45c-1.42,1.1-2.84,2.22-4.27,3.32
		c-2.23,1.73-4.46,3.45-6.69,5.18c-1.87,1.45-3.74,2.91-5.61,4.36c-2.17,1.69-4.35,3.37-6.52,5.06c-2.27,1.76-4.53,3.52-6.8,5.28
		c-1.78,1.38-3.56,2.75-5.34,4.14c-0.53,0.42-0.52,0.52,0.05,0.93c0.81,0.58,1.62,1.16,2.42,1.74c3.46,2.53,6.92,5.06,10.39,7.58
		c3.49,2.54,6.98,5.06,10.47,7.59c4.06,2.95,8.12,5.91,12.19,8.86c0.12,0.08,0.27,0.12,0.46,0.2
		C148.35,121.23,148.35,103.06,148.35,84.89z"/>
	<path class="st0" d="M87.5,113.21c-0.26-0.24-0.45-0.44-0.66-0.61c-1.99-1.57-3.99-3.13-5.98-4.71c-2.43-1.93-4.86-3.87-7.29-5.81
		c-3.27-2.59-6.55-5.18-9.81-7.78c-3.68-2.92-7.35-5.85-11.02-8.77c-0.13-0.1-0.3-0.15-0.5-0.25c0,18,0,35.88,0,53.79
		c0.12-0.03,0.2-0.02,0.25-0.06C64.13,130.44,75.76,121.86,87.5,113.21z"/>
</g>
</svg>
