<?xml version="1.0" encoding="utf-8"?>
<!-- Generator: Adobe Illustrator 24.1.1, SVG Export Plug-In . SVG Version: 6.00 Build 0)  -->
<svg version="1.1" id="Capa_1" xmlns="http://www.w3.org/2000/svg" xmlns:xlink="http://www.w3.org/1999/xlink" x="0px" y="0px"
	 viewBox="0 0 199.5 223" style="enable-background:new 0 0 199.5 223;" xml:space="preserve">
<style type="text/css">
	.st0{fill-rule:evenodd;clip-rule:evenodd;fill:#378EAE;}
	.st1{fill:#378EAE;}
</style>
<g>
	<path class="st0" d="M14.25,114.49c0-1.99,0-3.99,0-5.98c0.08-0.39,0.2-0.78,0.23-1.17c0.09-1.16,0.12-2.32,0.23-3.48
		c0.39-4.04,1-8.05,1.95-12c4.33-17.96,13.48-33.01,27.42-45.1c10.14-8.79,21.76-14.8,34.78-18.11c3.71-0.94,7.46-1.63,11.26-2.05
		c2-0.22,4.02-0.31,6.03-0.46c0.26-0.02,0.51-0.09,0.76-0.14c1.9,0,3.8,0,5.7,0c0.3,0.05,0.61,0.11,0.91,0.13
		c1.39,0.1,2.79,0.17,4.19,0.29c4.21,0.35,8.38,1.04,12.48,2.06c14.59,3.61,27.37,10.55,38.32,20.85
		c9.3,8.76,16.3,19.09,20.96,30.99c3.28,8.38,5.27,17.06,5.66,26.08c0.01,0.23,0.08,0.46,0.13,0.68c0,2.99,0,5.98,0,8.98
		c-0.05,0.23-0.12,0.46-0.13,0.69c-0.1,1.32-0.15,2.65-0.28,3.97c-0.41,4.16-1.15,8.27-2.22,12.31
		c-4.31,16.33-12.63,30.27-25.13,41.63c-15.07,13.7-32.86,21.07-53.2,22.25c-0.23,0.01-0.46,0.06-0.7,0.1c-2.52,0-5.03,0-7.55,0
		c-0.18-0.03-0.37-0.08-0.55-0.09c-1.82-0.15-3.64-0.26-5.46-0.46c-4.61-0.49-9.14-1.4-13.59-2.67
		c-13.39-3.83-25.15-10.53-35.28-20.08c-8.02-7.56-14.33-16.36-18.96-26.36c-3.16-6.84-5.36-13.98-6.62-21.41
		c-0.53-3.09-0.88-6.2-1.05-9.33C14.48,115.89,14.34,115.19,14.25,114.49z M99.82,186.84c41.61-0.02,74.93-33.65,75.33-74.52
		c0.42-41.77-33.28-75.68-74.54-76.08c-41.65-0.41-75.97,33.27-76.05,75.15C24.48,152.99,58.22,186.79,99.82,186.84z"/>
	<g>
		<path class="st1" d="M125.01,81.16c-3.12,0-5.65,2.53-5.65,5.65c0,3.12,2.53,5.65,5.65,5.65c3.12,0,5.65-2.53,5.65-5.65
			C130.66,83.69,128.13,81.16,125.01,81.16z M99.91,88.4c-13.08,0-23.72,10.64-23.72,23.72s10.64,23.72,23.72,23.72
			s23.71-10.64,23.71-23.72S112.99,88.4,99.91,88.4z M99.91,127.31c-8.38,0-15.19-6.81-15.19-15.19c0-8.38,6.81-15.19,15.19-15.19
			s15.19,6.81,15.19,15.19C115.1,120.5,108.29,127.31,99.91,127.31z M147.77,92.41c0-15.97-12.95-28.92-28.93-28.92H80.66
			c-15.98,0-28.93,12.95-28.93,28.92v38.18c0,15.97,12.95,28.92,28.93,28.92h38.18c15.98,0,28.93-12.95,28.93-28.92V92.41z
			 M138.71,130.59c0,10.97-8.89,19.87-19.87,19.87H80.66c-10.97,0-19.87-8.89-19.87-19.87V92.41c0-10.97,8.89-19.87,19.87-19.87
			h38.18c10.97,0,19.87,8.89,19.87,19.87V130.59z"/>
	</g>
</g>
</svg>
