<?xml version="1.0" encoding="utf-8"?>
<!-- Generator: Adobe Illustrator 24.1.1, SVG Export Plug-In . SVG Version: 6.00 Build 0)  -->
<svg version="1.1" id="Capa_1" xmlns="http://www.w3.org/2000/svg" xmlns:xlink="http://www.w3.org/1999/xlink" x="0px" y="0px"
	 viewBox="0 0 612 223" style="enable-background:new 0 0 612 223;" xml:space="preserve">
<style type="text/css">
	.st0{enable-background:new    ;}
	.st1{fill:#0091B3;}
	.st2{fill:#F5333F;}
	.st3{fill:#F5333F;stroke:#EE2424;stroke-width:1.0736;stroke-miterlimit:3.8637;}
</style>
<g>
	<g class="st0">
		<path class="st1" d="M190.1,158.3c1.4,1.6,2.7,2.8,4.1,3.6c1.3,0.8,2.7,1.2,4,1.2c1.2,0,2.3-0.3,3-1c0.8-0.7,1.2-1.5,1.2-2.6
			c0-1.1-0.3-2-1-2.7c-0.7-0.6-2.2-1.3-4.7-1.9c-3.3-0.9-5.7-2.1-7-3.6c-1.4-1.5-2.1-3.5-2.1-6c0-3.3,1.1-6,3.3-8.1
			c2.2-2.1,5-3.1,8.5-3.1c1.9,0,3.6,0.3,5.3,0.8c1.7,0.5,3.3,1.3,4.8,2.3l-2.9,6.8c-1.1-0.9-2.1-1.6-3.2-2.1
			c-1.1-0.5-2.2-0.7-3.3-0.7c-1.1,0-2,0.3-2.7,0.8c-0.7,0.5-1,1.2-1,2.1c0,0.9,0.3,1.6,0.9,2.1c0.6,0.5,1.8,1,3.5,1.5
			c0.1,0,0.2,0.1,0.4,0.1c3.8,1,6.3,2.2,7.4,3.4c0.8,0.9,1.4,1.9,1.8,3.1c0.4,1.2,0.6,2.5,0.6,4c0,3.7-1.2,6.6-3.5,8.8
			c-2.4,2.2-5.5,3.3-9.5,3.3c-2.4,0-4.5-0.4-6.5-1.2c-1.9-0.8-3.8-2.1-5.6-3.8L190.1,158.3z"/>
		<path class="st1" d="M234,134.9h9.2v16.8c0,2.5,0.1,4.2,0.2,5.3c0.1,1.1,0.3,2,0.6,2.7c0.4,0.9,1,1.6,1.9,2c0.9,0.5,2,0.7,3.2,0.7
			s2.3-0.2,3.2-0.7c0.9-0.5,1.5-1.1,1.9-2c0.3-0.7,0.5-1.6,0.6-2.7c0.1-1.1,0.2-2.9,0.2-5.3v-2.4v-14.5h9.2v18.3
			c0,3.8-0.2,6.6-0.7,8.4s-1.2,3.3-2.3,4.6c-1.2,1.4-2.8,2.5-4.8,3.2s-4.5,1.1-7.4,1.1c-2.9,0-5.4-0.4-7.4-1.1s-3.6-1.8-4.8-3.2
			c-1.1-1.3-1.8-2.8-2.3-4.6c-0.5-1.8-0.7-4.6-0.7-8.4v-3.6V134.9z"/>
		<path class="st1" d="M289.2,169.4v-34.6h9.7c3.8,0,6.4,0.2,7.9,0.5s2.8,0.9,3.9,1.8c1.2,0.9,2.2,2.1,2.8,3.6c0.7,1.5,1,3.1,1,4.8
			c0,2.7-0.6,4.9-1.9,6.5c-1.3,1.7-3.2,2.8-5.6,3.3l9.3,13.9h-10.5l-7.8-13.5v13.5H289.2z M297.9,151.2h1.7c2,0,3.5-0.3,4.4-1
			c0.9-0.7,1.4-1.8,1.4-3.3c0-1.7-0.4-3-1.3-3.7c-0.9-0.7-2.3-1.1-4.3-1.1h-1.9V151.2z"/>
		<path class="st1" d="M353.8,156.7v-7.2H372c0,0.2,0,0.5,0,0.8s0,0.7,0,1.3c0,6-1.5,10.6-4.6,13.8c-3.1,3.3-7.4,4.9-13,4.9
			c-2.8,0-5.2-0.4-7.3-1.3c-2.1-0.8-4.1-2.1-5.7-3.9c-1.6-1.7-2.9-3.6-3.7-5.9c-0.9-2.3-1.3-4.6-1.3-7.1c0-2.6,0.4-5,1.3-7.1
			c0.9-2.2,2.2-4.1,3.9-5.8c1.7-1.7,3.7-3,5.9-3.8c2.2-0.9,4.6-1.3,7.1-1.3c3.3,0,6.3,0.7,8.8,2c2.6,1.3,4.7,3.3,6.5,6l-8,3.9
			c-1-1.3-2-2.3-3.2-3s-2.5-1-4-1c-2.8,0-4.9,0.9-6.5,2.8c-1.6,1.9-2.4,4.5-2.4,7.7c0,3.3,0.8,5.9,2.4,7.8c1.6,1.9,3.8,2.8,6.5,2.8
			c2.3,0,4.3-0.6,5.9-1.8c1.6-1.2,2.5-2.7,2.7-4.7H353.8z"/>
		<path class="st1" d="M395.7,169.4v-34.6h20.8v7.6h-11.8v6h11.1v7.4h-11.1v5.8h11.8v7.7H395.7z"/>
		<path class="st1" d="M440.6,169.4v-34.6h9.7c3.8,0,6.4,0.2,7.9,0.5s2.8,0.9,3.9,1.8c1.2,0.9,2.2,2.1,2.8,3.6c0.7,1.5,1,3.1,1,4.8
			c0,2.7-0.6,4.9-1.9,6.5c-1.3,1.7-3.2,2.8-5.6,3.3l9.3,13.9h-10.5l-7.8-13.5v13.5H440.6z M449.3,151.2h1.7c2,0,3.5-0.3,4.4-1
			c0.9-0.7,1.4-1.8,1.4-3.3c0-1.7-0.4-3-1.3-3.7c-0.9-0.7-2.3-1.1-4.3-1.1h-1.9V151.2z"/>
		<path class="st1" d="M495.1,169.4v-15.8l-11.9-18.8h10.6l4.6,8.9c0,0,0.1,0.1,0.1,0.3c0.5,0.9,0.8,1.8,1,2.7
			c0.2-0.8,0.5-1.6,1-2.6c0.1-0.2,0.2-0.3,0.2-0.4l4.5-8.9h10.6L504,153.7v15.8H495.1z"/>
	</g>
</g>
<g>
	<g>
		<path class="st2" d="M416.9,43.1c0.1,0,0.2,0,0.3,0c4.8,0.6,7.3,2.6,8.6,5.7c3.3,7.8-3.7,14.3-11.1,12.7
			C404.9,59.4,404.6,43.1,416.9,43.1z"/>
		<path class="st2" d="M52.5,46c28.6-0.8,49.8-0.8,59.8,16.5c8.8,15.3,3.3,35.2-7.1,43.8c-11.5,9.4-31.9,8.5-52.9,8.2
			c-0.6-22.1-0.1-45.3-0.2-67.8C52,46.3,52.2,46.1,52.5,46z M71.5,62c0.2,12.3-0.3,25.3,0.3,37.2c10-0.1,18.6-1.1,22.6-7.8
			c4.5-7.4,3.1-20.9-2.9-25.9c-4.7-3.8-10.9-4.3-19.7-4.3C71.4,61.3,71.5,61.6,71.5,62z"/>
		<path class="st2" d="M234.2,114.5c-5.8,0-11.6,0-17.5,0c0-10.1,0-19.2,0-27.3c0-3.1-1.1-6.1-3-7.5c-3.4-2.6-8.9-1.5-11.6,0.7
			c-2.2,1.9-3.4,4.9-4,8.6c0.1,13.3,0.1,14.8,0.1,25.6c-5.7,0-11.5,0-17.2,0c0-15.8,0-31.6,0-47.3c5.3,0,10.7,0,16,0
			c0,3.1,0,6.1,0,9.2c3.4-4.7,7.8-9.9,15.7-10.6c8.7-0.8,15.6,1.8,18.7,6.6c3.2,4.8,2.7,12.3,2.7,19.8
			C234.2,99.5,234.2,107.4,234.2,114.5z"/>
		<path class="st2" d="M283.4,74.7c0-2.5,0-5,0-7.5c5.3,0,10.7,0,16,0c0,15.8,0,31.5,0,47.3c-5.3,0-10.7,0-16,0c0-2.4,0-4.9,0-7.3
			c-3.6,5.1-10.7,9.8-20.7,9c-13.6-1.2-19.5-14.8-18.7-28c0.6-11.2,7.5-21.3,19.4-22.4C274.3,64.7,279.3,68.9,283.4,74.7z M266,80.3
			c-4,2.4-6.9,10.6-3.4,17c3.2,5.9,12.1,7.2,17.5,3.3c7.3-5.3,4.2-17.9-1.5-20.7c-1.6-0.8-5-1.2-7.4-0.9
			C268.8,79.2,267.3,79.5,266,80.3z"/>
		<path class="st2" d="M361.7,74.4c4.3-9.6,24.2-12.3,31-2.3c3.5,5.1,2.9,13.6,2.6,23c-0.1,6.8-0.1,9.7-0.1,19.4
			c-8.1,0.1-11.9,0.1-17.2,0.1c0-11.6,0.2-20.7-0.1-29.5c-0.1-1.8-0.6-4-1.5-5.2c-2-2.7-7.5-2.8-10.6-0.7c-3.7,2.6-3.7,9.7-3.7,16
			c0,6.8,0,13.1,0,19.3c-5.6,0-11.2,0-16.8,0c0-5.2,0-11.7,0-17.9c0-6.3,0.4-13.3-1.5-16.3c-2.1-3.2-8.3-3.5-11.3-0.7
			c-2.1,2-3,5.4-3.3,9.5c0,8-0.2,14.9,0,25.5c-5.6,0-10.9,0-16.6-0.1c0-15.8,0-31.6,0-47.3c5.7,0,11.3,0,17,0c0,2.6,0,5.2,0,7.8
			c2.8-3.4,6.9-8.5,13.8-9.2C352.6,64.8,359.3,67.9,361.7,74.4z"/>
		<path class="st2" d="M474.5,68.6c0,4.5,0,8.9,0,13.4c-1.6,0.3-2.7-1.6-4.4-2.4c-11.3-4.9-20.2,6.5-15.8,16.7
			c1.6,3.7,5.8,6.3,10.3,6.3c4.6,0.1,7-2.1,9.9-3.8c0,4.7,0,9.4,0,14.1c-3.8,1.5-6,2.7-9.9,3.1c-17.5,1.4-28.5-9.6-28.5-25.2
			c0-13.4,8.6-24.1,22.4-25.2C465.1,65.2,470.3,66.3,474.5,68.6z"/>
		<path class="st2" d="M522.7,70c-1,3.9-2.4,7.4-3.5,11.3c-3.8-1.7-9-5.3-16-4.5c-2.1,0.3-4.1,1.2-4.2,3.1c-0.2,4.1,6.7,4.5,9.9,5.4
			c6.7,1.9,14.2,5.1,15.3,11.8c3.5,22.3-30.4,22.7-43.6,13.4c1.1-4.2,2.3-8.2,3.5-12.3c1.2-0.2,2.6,1.7,4.2,2.6
			c3.7,2.1,9.6,4.2,15.3,3.5c2.5-0.3,4.9-1.4,4.9-3.8c0-4.4-7.8-5.1-11.3-6.1c-6.8-1.9-13.2-4.6-14-11.8
			C480.9,63.8,508.7,62.5,522.7,70z"/>
		<path class="st2" d="M138.4,67.2c3,8.2,6.8,15.9,9.1,24c2.3-8.1,6.3-16.6,9.4-24c4.3-0.1,12.5,0,18.4,0
			c-9.8,22.2-20.6,45.4-31,68.3c-5.5,0-12.9,0-19.2,0c4.6-10.2,9.2-18.8,13.8-28.3c-6.7-13.6-13.6-26.8-19.7-40
			C124.8,67.1,132.1,67.2,138.4,67.2z"/>
		<path class="st2" d="M408.5,67.2c5.7,0,11.3,0,17,0c0,15,0,30.2,0,47.3c-5.7,0-11.5,0-17.2,0c0-15.5,0-31.1,0-46.6
			C408.2,67.5,408.2,67.2,408.5,67.2z"/>
		<g>
			<g>
				<path class="st2" d="M530.1,70.8c-3.4,0-6.1-2.7-6.1-5.9c0-3.3,2.8-5.9,6.1-5.9c3.4,0,6.1,2.7,6.1,5.9
					C536.3,68.1,533.5,70.8,530.1,70.8z M530.1,60.3c-2.7,0-4.8,2.1-4.8,4.6c0,2.5,2.2,4.6,4.8,4.6s4.8-2.1,4.8-4.6
					C535,62.3,532.8,60.3,530.1,60.3z"/>
				<path class="st3" d="M530.1,64.8"/>
			</g>
			<path class="st2" d="M527.5,67.8v-6.1h2.7c0.7,0,1.2,0.1,1.5,0.2c0.3,0.1,0.6,0.3,0.8,0.6c0.2,0.3,0.3,0.6,0.3,1
				c0,0.5-0.1,0.8-0.4,1.1c-0.3,0.3-0.7,0.5-1.3,0.6c0.3,0.2,0.5,0.3,0.7,0.5c0.2,0.2,0.4,0.5,0.7,1l0.8,1.2h-1.5l-0.9-1.3
				c-0.3-0.5-0.6-0.8-0.7-0.9c-0.1-0.1-0.3-0.2-0.4-0.3c-0.1,0-0.4-0.1-0.7-0.1h-0.3v2.6H527.5z M528.8,64.3h1c0.6,0,1,0,1.2-0.1
				c0.1-0.1,0.3-0.1,0.4-0.3c0.1-0.1,0.1-0.3,0.1-0.5c0-0.2,0-0.4-0.2-0.5s-0.3-0.2-0.5-0.2c-0.1,0-0.4,0-1,0h-1L528.8,64.3
				L528.8,64.3z"/>
		</g>
	</g>
</g>
</svg>
